<svg xmlns="http://www.w3.org/2000/svg" width="234" height="333"><rect width="233.244" height="332.244" x=".378" y=".378" rx="8.919" ry="8.946" style="fill:#fff;fill-opacity:1;stroke:gray;stroke-width:.75590545;stroke-linecap:butt;stroke-linejoin:miter;stroke-miterlimit:4.30000019;stroke-dasharray:none;stroke-opacity:1"/><path d="M12.899 61.34c0-.556-.031-.958-.031-1.514h3.545V57.09c-2.244.072-4.673.239-6.774-.687-1.627-.893-2.076-2.97-1.748-4.68.281-1.927 1.353-3.639 2.75-4.957 1.82-1.946 4.14-3.26 6.562-4.316 2.472 1.075 4.843 2.431 6.685 4.428 1.66 1.56 2.765 3.763 2.731 6.07.036 1.666-.995 3.426-2.697 3.79-1.904.527-3.83.433-5.785.352v2.737h3.353c0 .556.03.958.03 1.514a665.864 665.864 0 0 0-8.621 0zM212.488 271.66c0 .556-.031.958-.031 1.514h3.545v2.737c-2.244-.072-4.673-.239-6.774.687-1.627.893-2.076 2.97-1.748 4.68.28 1.927 1.352 3.639 2.75 4.957 1.82 1.946 4.14 3.26 6.562 4.316 2.472-1.075 4.843-2.431 6.685-4.428 1.66-1.56 2.765-3.763 2.731-6.07.036-1.666-.996-3.426-2.697-3.79-1.904-.527-3.83-.433-5.785-.352v-2.737h3.353c0-.556.03-.958.03-1.514-2.632.019-5.778.019-8.621 0z" style="fill:#000;stroke:none;stroke-width:1"/><g aria-label="A" style="font-style:normal;font-variant:normal;font-weight:700;font-stretch:normal;line-height:0%;font-family:&quot;Levenim MT&quot;;-inkscape-font-specification:&quot;Sans Bold&quot;;letter-spacing:0;word-spacing:0;fill:#000;fill-opacity:1;stroke:none;stroke-width:3.18132639"><path d="M100.973 94.838H86.16l-5.853-15.423h-30.54l-6.107 15.423H28.849l28.86-74.872h14.455ZM74.963 65.52l-9.925-25.704-9.976 25.704Z" style="font-size:104.24028015px;line-height:1.25;stroke-width:3.18132639" transform="matrix(.26107 0 0 .37847 .26 .259)"/></g><g aria-label="A" style="font-style:normal;font-variant:normal;font-weight:700;font-stretch:normal;line-height:0%;font-family:&quot;Levenim MT&quot;;-inkscape-font-specification:&quot;Sans Bold&quot;;letter-spacing:0;word-spacing:0;fill:#000;fill-opacity:1;stroke:none;stroke-width:3.18132639"><path d="M-793.356-783.658h-14.811l-5.854-15.423h-30.539l-6.108 15.423h-14.811l28.86-74.872h14.454zm-26.01-29.318-9.924-25.704-9.977 25.704z" style="font-size:104.24028015px;line-height:1.25;stroke-width:3.18132639" transform="matrix(-.26107 0 0 -.37847 .26 .259)"/></g><path d="M49.302 202.548c-14.553-7.985-18.568-26.573-15.634-41.855 2.511-17.24 12.098-32.552 24.605-44.344 16.275-17.404 37.032-29.153 58.701-38.606 22.12 9.613 43.334 21.746 59.815 39.61 14.846 13.947 24.737 33.66 24.433 54.299.322 14.897-8.908 30.64-24.133 33.89-17.032 4.715-34.27 3.879-60.764 3.838-26.494-.04-48.222 1.45-67.023-6.832z" style="fill:#fff;stroke:#000;stroke-width:4.72440958;stroke-miterlimit:4;stroke-dasharray:none"/><path d="M81.784 238.64v-12.438h27.602v-22.104c-18.148.585-36.588 2.033-53.583-5.47-13.156-7.234-16.786-24.073-14.134-37.917 2.27-15.619 10.937-29.489 22.243-40.171 14.713-15.767 33.476-26.41 53.065-34.974 19.995 8.709 39.172 19.7 54.071 35.882 13.42 12.635 22.362 30.493 22.087 49.19.291 13.495-8.053 27.757-21.816 30.701-15.396 4.272-30.9 3.514-46.705 2.855v22.008h27.602v12.437c-21.29-.15-70.432.043-70.432 0z" style="fill:#000;stroke:none;stroke-width:1"/><g style="fill:none;stroke:#000;stroke-width:6.04941225;stroke-miterlimit:4;stroke-dasharray:none"><path d="M229.89 385.64c17.367 20.948 41.608 24.585 69.173 25.315 29.519 1.077 59.166-10.645 66.819-25.314" style="stroke-width:6.04941225;stroke-miterlimit:4;stroke-dasharray:none" transform="matrix(.18735 0 0 .18752 61.094 105.4)"/><g style="stroke-width:6.04941225;stroke-miterlimit:4;stroke-dasharray:none"><path d="m240.704 350.947.32 44.525M254.97 358.63l-.208 44.126M269.96 360.5l-.416 46.208M283.49 361.54l-.209 46.832M298.68 361.96v46.832M313.25 359.173l.208 49.409" style="stroke-width:6.04941225;stroke-miterlimit:4;stroke-dasharray:none" transform="matrix(.18735 0 0 .18752 61.094 105.4)"/><path d="m326.78 360.5.416 46" style="stroke-width:6.04941225;stroke-miterlimit:4;stroke-dasharray:none" transform="matrix(.18735 0 0 .18752 61.016 105.4)"/><path d="m341.56 358 .208 44.126M357.14 350.013l-1.423 44.205" style="stroke-width:6.04941225;stroke-miterlimit:4;stroke-dasharray:none" transform="matrix(.18735 0 0 .18752 61.094 105.4)"/></g></g><path d="M133.12 164.646c-1.066 2.503-1.464 3.799-2.233 6.293-.655 2.305-.896 3.712-1.3 6.987" style="fill:none;stroke:#000;stroke-width:1.13385832;stroke-miterlimit:4;stroke-dasharray:none"/><path d="M100.9 143.571c2.522-.442 4.966-.728 7.487-1.015 3.302-.832 4.966 2.94 4.056 5.777-1.144 2.524-2.756 4.735-4.601 6.87-1.43 1.612-3.134 1.873-4.758 1.326-1.31-.364-2.522-1.17-3.822-3.044-.571-1.614-1.065-2.446-1.793-4.45-.572-1.847.317-4.613 3.432-5.464z" style="fill-rule:evenodd;stroke:#000;stroke-width:.75590551;stroke-miterlimit:4;stroke-dasharray:none"/><path d="m103.942 207.513-.15 13.543h-27.25v22.603h81.749v-22.603h-28.084v-12.069" style="fill:none;stroke:#000;stroke-width:4.72440958;stroke-linecap:butt;stroke-linejoin:miter;stroke-miterlimit:4;stroke-dasharray:none;stroke-opacity:1"/><rect width="3.147" height="5.564" x="106.194" y="206.893" rx="0" ry="0" style="fill:#fff;fill-opacity:1;stroke:none;stroke-width:1"/><rect width="3.307" height="5.57" x="124.584" y="206.764" rx="0" ry="0" style="fill:#fff;fill-opacity:1;stroke:none;stroke-width:1"/><path d="M53.875 108.472c8.537-10.664 16.548-15.92 27.24-22.59 10.889-6.654 23.271-12.425 36.261-15.968 12.99 3.543 25.96 9.397 36.85 16.05 10.691 6.672 17.337 12.038 26.504 22.508" style="fill:none;stroke:none;stroke-width:.65088296px;stroke-linecap:butt;stroke-linejoin:miter;stroke-opacity:1"/></svg>